<svg xmlns:dc="http://purl.org/dc/elements/1.1/" xmlns:cc="http://creativecommons.org/ns#" xmlns:rdf="http://www.w3.org/1999/02/22-rdf-syntax-ns#" xmlns:svg="http://www.w3.org/2000/svg" xmlns="http://www.w3.org/2000/svg" xmlns:xlink="http://www.w3.org/1999/xlink" id="svg287790" height="155px" width="150px" version="1.1">
 
  <defs id="defs287794"></defs>
  <g id="logo-group">
    <g id="logo-center">      
      <g id="title" style="font-style:normal;font-weight:400;font-size:72px;line-height:1;font-family:'Brandmark Dots 1 Color';font-variant-ligatures:normal;text-align:center;text-anchor:middle" >
        <path id="path287799" style="font-style:normal;font-weight:400;font-size:72px;line-height:1;font-family:'Brandmark Dots 1 Color';font-variant-ligatures:normal;text-align:center;text-anchor:middle" d="m 450.80844,-2.808 12.168,-27.72 c 1.08,-2.448 -0.072,-5.256 -2.448,-6.336 -2.448,-1.008 -5.256,0.072 -6.264,2.448 l -7.776,18 -13.536,-31.104 c -1.08,-2.448 -3.888,-3.528 -6.264,-2.448 -2.448,1.008 -3.528,3.816 -2.448,6.264 l 17.856,40.896 c 0.72,1.728 2.448,2.88 4.32,2.88 1.944,0 3.672,-1.152 4.392,-2.88 z m 8.784,-42.84 c 0,2.664 2.16,4.824 4.752,4.824 2.664,0 4.752,-2.16 4.752,-4.824 0,-2.592 -2.088,-4.752 -4.752,-4.752 -2.592,0 -4.752,2.16 -4.752,4.752 z" stroke-width="0" stroke-linejoin="miter" stroke-miterlimit="2" fill="#50bded" stroke="#50bded" transform="translate(-255 50 ) translate(269.9157125000001 -24.304000000000002) scale(2.5) translate(-423.82213 50.4)"></path>     
      </g>
      <image xlink:href="" id="icon" x="0" y="0" style="display: none;"></image>
    </g>
  </g>
</svg>
