<svg xmlns:dc="http://purl.org/dc/elements/1.1/" xmlns:cc="http://creativecommons.org/ns#" xmlns:rdf="http://www.w3.org/1999/02/22-rdf-syntax-ns#" xmlns:svg="http://www.w3.org/2000/svg" xmlns="http://www.w3.org/2000/svg" xmlns:xlink="http://www.w3.org/1999/xlink" id="svg287790" viewBox="0 0 1024 768" height="768px" width="1024px" version="1.1">
  <metadata id="metadata287796">
    <rdf:rdf>
      <cc:work rdf:about="">
        <dc:format>image/svg+xml</dc:format>
        <dc:type rdf:resource="http://purl.org/dc/dcmitype/StillImage"></dc:type>
      </cc:work>
    </rdf:rdf>
  </metadata>
  <defs id="defs287794"></defs>
  <linearGradient spreadMethod="pad" y2="30%" x2="-10%" y1="120%" x1="30%" id="3d_gradient2-logo-2fc4185b-f048-4738-a9be-7db27575f678">
    <stop id="stop287771" stop-opacity="1" stop-color="#ffffff" offset="0%"></stop>
    <stop id="stop287773" stop-opacity="1" stop-color="#000000" offset="100%"></stop>
  </linearGradient>
  <linearGradient gradientTransform="rotate(-30)" spreadMethod="pad" y2="30%" x2="-10%" y1="120%" x1="30%" id="3d_gradient3-logo-2fc4185b-f048-4738-a9be-7db27575f678">
    <stop id="stop287776" stop-opacity="1" stop-color="#ffffff" offset="0%"></stop>
    <stop id="stop287778" stop-opacity="1" stop-color="#cccccc" offset="50%"></stop>
    <stop id="stop287780" stop-opacity="1" stop-color="#000000" offset="100%"></stop>
  </linearGradient>
  <g id="logo-group">
    <image xlink:href="" id="container" x="272" y="144" width="480" height="480" style="display: none;" transform="translate(0 0)"></image>
    <g id="logo-center" transform="translate(0 0)">
      <image xlink:href="" id="icon_container" x="0" y="0" style="display: none;"></image>
      <g id="slogan" style="font-style:oblique;font-weight:300;font-size:32px;line-height:1;font-family:Raleway;font-variant-ligatures:none;text-align:center;text-anchor:middle" transform="translate(0 0)"></g>
      <g id="title" style="font-style:normal;font-weight:400;font-size:72px;line-height:1;font-family:'Brandmark Dots 1 Color';font-variant-ligatures:normal;text-align:center;text-anchor:middle" transform="translate(0 0)">
        <path id="path287799" style="font-style:normal;font-weight:400;font-size:72px;line-height:1;font-family:'Brandmark Dots 1 Color';font-variant-ligatures:normal;text-align:center;text-anchor:middle" d="m 450.80844,-2.808 12.168,-27.72 c 1.08,-2.448 -0.072,-5.256 -2.448,-6.336 -2.448,-1.008 -5.256,0.072 -6.264,2.448 l -7.776,18 -13.536,-31.104 c -1.08,-2.448 -3.888,-3.528 -6.264,-2.448 -2.448,1.008 -3.528,3.816 -2.448,6.264 l 17.856,40.896 c 0.72,1.728 2.448,2.88 4.32,2.88 1.944,0 3.672,-1.152 4.392,-2.88 z m 8.784,-42.84 c 0,2.664 2.16,4.824 4.752,4.824 2.664,0 4.752,-2.16 4.752,-4.824 0,-2.592 -2.088,-4.752 -4.752,-4.752 -2.592,0 -4.752,2.16 -4.752,4.752 z" stroke-width="0" stroke-linejoin="miter" stroke-miterlimit="2" fill="#50bded" stroke="#50bded" transform="translate(0 345.304) translate(269.9157125000001 -24.304000000000002) scale(2.5) translate(-423.82213 50.4)"></path>
        <path id="path287801" style="font-style:normal;font-weight:400;font-size:72px;line-height:1;font-family:'Brandmark Dots 1 Color';font-variant-ligatures:normal;text-align:center;text-anchor:middle" d="m 482.95306,-42.12 c 2.664,0 4.824,-2.16 4.824,-4.824 0,-2.592 -2.16,-4.752 -4.824,-4.752 -2.592,0 -4.752,2.16 -4.752,4.752 0,2.664 2.16,4.824 4.752,4.824 z m -4.752,37.368 c 0,2.592 2.16,4.752 4.752,4.752 2.664,0 4.824,-2.16 4.824,-4.752 v -27.864 c 0,-2.592 -2.16,-4.752 -4.824,-4.752 -2.592,0 -4.752,2.16 -4.752,4.752 z" stroke-width="0" stroke-linejoin="miter" stroke-miterlimit="2" fill="#6dc9ef" stroke="#6dc9ef" transform="translate(0 345.304) translate(420.8630375 -27.54400000000001) scale(2.5) translate(-478.20106 51.696)"></path>
        <path id="path287803" style="font-style:normal;font-weight:400;font-size:72px;line-height:1;font-family:'Brandmark Dots 1 Color';font-variant-ligatures:normal;text-align:center;text-anchor:middle" d="m 534.95281,-31.32 v 14.256 l -25.272,-31.032 c -2.232,-2.592 -4.608,-2.736 -6.408,-1.728 -2.304,1.224 -2.52,3.384 -2.52,5.184 v 39.888 c 0,2.592 2.16,4.752 4.752,4.752 2.664,0 4.824,-2.16 4.824,-4.752 v -28.512 l 24.984,30.6 c 0.792,0.936 1.368,1.584 2.448,2.16 2.016,1.008 3.816,0.36 4.968,-0.504 1.44,-1.224 1.8,-2.664 1.8,-4.32 v -26.064 c 0,-2.592 -2.16,-4.752 -4.824,-4.752 -2.592,0 -4.752,2.16 -4.752,4.824 z m 0,-14.328 c 0,2.664 2.16,4.752 4.824,4.752 2.592,0 4.752,-2.088 4.752,-4.752 0,-2.664 -2.16,-4.752 -4.752,-4.752 -2.664,0 -4.824,2.088 -4.824,4.752 z" stroke-width="0" stroke-linejoin="miter" stroke-miterlimit="2" fill="#8bd4f2" stroke="#8bd4f2" transform="translate(0 345.304) translate(492.2424125 -24.314819999999997) scale(2.5) translate(-500.75281 50.404328)"></path>
        <path id="path287805" style="font-style:normal;font-weight:400;font-size:72px;line-height:1;font-family:'Brandmark Dots 1 Color';font-variant-ligatures:normal;text-align:center;text-anchor:middle" d="m 563.05756,-25.2 c 0,-9.36 7.56,-16.92 16.92,-16.92 4.536,0 8.208,1.44 11.088,3.096 2.664,1.44 5.328,1.368 6.624,-0.576 1.512,-2.16 1.368,-5.04 -0.648,-6.696 -5.472,-4.464 -12.24,-5.4 -17.064,-5.4 -14.616,0 -26.496,11.808 -26.496,26.496 0,10.656 6.336,19.8 15.48,24.048 3.672,1.656 7.344,2.448 11.016,2.448 4.464,0 6.048,-2.16 6.048,-4.536 0,-2.232 -1.44,-3.96 -4.896,-4.32 -3.528,-0.36 -6.408,-1.152 -9.144,-2.736 -5.4,-2.952 -8.928,-8.424 -8.928,-14.904 z m 26.856,16.92 c 0,2.664 2.16,4.824 4.752,4.824 2.664,0 4.824,-2.16 4.824,-4.824 0,-2.592 -2.16,-4.752 -4.824,-4.752 -2.592,0 -4.752,2.16 -4.752,4.752 z" stroke-width="0" stroke-linejoin="miter" stroke-miterlimit="2" fill="#a8e0f4" stroke="#a8e0f4" transform="translate(0 345.304) translate(639.0642874999999 -27.54400000000001) scale(2.5) translate(-553.48156 51.696)"></path>
      </g>
      <image xlink:href="" id="icon" x="0" y="0" style="display: none;"></image>
    </g>
  </g>
</svg>